# xmcd CD database file
#
# Track frame offsets:
#	150
#	15312
#	32885
#	47500
#	60840
#	74625
#	90275
#	108820
#	120025
#	137927
#	154685
#	173107
#	188762
#	203035
#	218062
#	234352
#	249187
#	277087
#
# Disc length: 3982 seconds
#
# Revision: 0
# Processed by: cddbd v1.5.1PL2 Copyright (c) Steve Scherf et al.
# Submitted via: Feurio! 1.64 - http://www.feurio.com
#
DISCID=e10f8c12
DTITLE=The Bellamy Brothers - Gold And More-1994
DYEAR=1994
DGENRE=Country
TTITLE0=Let Your Love Flow - Classic Remastered Radio Version
TTITLE1=Blame It...On The Fire In My Heart
TTITLE2=If I Said You Had A Beautiful Body
TTITLE3=Slippin' Away
TTITLE4=Lovin' On
TTITLE5=I Need More Of You
TTITLE6=Satin Sheets
TTITLE7=Bird Dog
TTITLE8=Neon Cowboy -1991
TTITLE9=Feelin' The Feelin'
TTITLE10=Old Hippie
TTITLE11=Kids Of The Baby Boom
TTITLE12=Ole Faithful
TTITLE13=Dancin' Cowboys
TTITLE14=Forget About Me
TTITLE15=I Love Her Mind
TTITLE16=Let Your Love Flow - '94 Dance Remix
TTITLE17=If I Said You Had A Beautiful Body - The Sexy Country Mix
EXTD=Edel-05.01.1994 -(007793-4CUR)
EXTT0=
EXTT1=
EXTT2=
EXTT3=
EXTT4=
EXTT5=
EXTT6=
EXTT7=
EXTT8=
EXTT9=
EXTT10=
EXTT11=
EXTT12=
EXTT13=
EXTT14=
EXTT15=
EXTT16=
EXTT17=
PLAYORDER=
